<?xml version="1.0" encoding="UTF-8" standalone="no"?>
<!DOCTYPE svg PUBLIC "-//W3C//DTD SVG 1.1//EN" "http://www.w3.org/Graphics/SVG/1.1/DTD/svg11.dtd">
<svg width="100%" height="100%" viewBox="0 0 38 38" version="1.1" xmlns="http://www.w3.org/2000/svg" xmlns:xlink="http://www.w3.org/1999/xlink" xml:space="preserve" xmlns:serif="http://www.serif.com/" style="fill-rule:evenodd;clip-rule:evenodd;stroke-linecap:round;stroke-linejoin:round;stroke-miterlimit:1.5;">
    <g transform="matrix(1,0,0,1,-39.7291,-2.74557)">
        <g transform="matrix(1,0,0,1,4.0796,-6.16915)">
            <rect x="36.376" y="9.641" width="35.821" height="19.701" style="fill:none;"/>
            <g transform="matrix(0.515368,0,0,0.574581,38.492,6.57036)">
                <rect x="40.555" y="11.929" width="13.035" height="10.945" style="fill:rgb(29,83,255);"/>
            </g>
            <g transform="matrix(0.515368,0,0,0.574581,34.7758,12.7164)">
                <rect x="40.555" y="11.929" width="13.035" height="10.945" style="fill:rgb(18,186,0);"/>
            </g>
            <g transform="matrix(0.515368,0,0,0.574581,41.4936,12.5734)">
                <rect x="40.555" y="11.929" width="13.035" height="10.945" style="fill:rgb(255,34,29);"/>
            </g>
            <rect x="36.376" y="9.641" width="35.821" height="19.701" style="fill:none;stroke:black;stroke-width:1.45px;"/>
        </g>
        <rect x="58.565" y="23.77" width="0.1" height="15.423" style="fill:none;stroke:black;stroke-width:1.45px;"/>
        <g transform="matrix(2.54239,0,0,2.54239,-73.0016,-8.91488)">
            <text x="46.127px" y="11.233px" style="font-family:'ArialMT', 'Arial', sans-serif;font-size:6.807px;">F</text>
        </g>
        <g transform="matrix(1,0,0,1,-0.298507,0.0995025)">
            <rect x="42.843" y="5.163" width="14.527" height="15.821" style="fill:none;stroke:rgb(255,105,29);stroke-width:1.45px;"/>
        </g>
    </g>
</svg>
