<svg width="865" height="891" viewBox="0 0 865 891" fill="none" xmlns="http://www.w3.org/2000/svg">
<rect width="865" height="891" fill="white"/>
<rect width="865" height="493" fill="black"/>
<rect x="417" y="480" width="29" height="411" fill="black"/>
<rect x="12" y="10" width="839" height="470" fill="white"/>
<rect x="483" y="88" width="326" height="287" fill="#FFA500"/>
<rect x="492" y="95" width="308" height="273" fill="white"/>
<path d="M711.568 192C709.224 184.827 706.135 178.399 702.3 172.717C698.536 166.964 694.026 162.064 688.77 158.016C683.585 153.967 677.69 150.878 671.085 148.747C664.48 146.616 657.236 145.551 649.352 145.551C636.426 145.551 624.672 148.889 614.089 155.565C603.507 162.241 595.091 172.078 588.841 185.075C582.591 198.072 579.466 214.017 579.466 232.909C579.466 251.801 582.626 267.746 588.947 280.743C595.268 293.74 603.827 303.577 614.622 310.253C625.418 316.929 637.563 320.267 651.057 320.267C663.557 320.267 674.565 317.604 684.082 312.277C693.67 306.879 701.128 299.28 706.455 289.479C711.852 279.607 714.551 267.994 714.551 254.642L722.648 256.347H657.023V232.909H740.119V256.347C740.119 274.315 736.284 289.94 728.614 303.222C721.014 316.503 710.503 326.801 697.08 334.116C683.727 341.361 668.386 344.983 651.057 344.983C631.739 344.983 614.764 340.438 600.134 331.347C585.574 322.256 574.21 309.33 566.043 292.568C557.946 275.807 553.898 255.92 553.898 232.909C553.898 215.651 556.206 200.132 560.822 186.354C565.51 172.504 572.115 160.714 580.638 150.984C589.161 141.254 599.246 133.797 610.893 128.612C622.541 123.428 635.361 120.835 649.352 120.835C660.858 120.835 671.582 122.575 681.526 126.055C691.54 129.464 700.453 134.33 708.266 140.651C716.149 146.901 722.719 154.393 727.974 163.129C733.23 171.794 736.852 181.418 738.841 192H711.568Z" fill="black"/>
<path d="M20 225.5L157.25 102.091L157.25 348.909L20 225.5Z" fill="#800080"/>
<rect x="148" y="163" width="298" height="128" fill="#800080"/>
</svg>
