<svg width="800" height="50" viewBox="0 0 800 50" fill="none" xmlns="http://www.w3.org/2000/svg">
<path fill-rule="evenodd" clip-rule="evenodd" d="M0 0H800V50H0V0ZM5 5H45V45H5V5ZM795 5H755V45H795V5ZM705 5H745V45H705V5ZM695 5H655V45H695V5ZM605 5H645V45H605V5ZM595 5H555V45H595V5ZM505 5H545V45H505V5ZM495 5H455V45H495V5ZM405 5H445V45H405V5ZM395 5H355V45H395V5ZM305 5H345V45H305V5ZM295 5H255V45H295V5ZM205 5H245V45H205V5ZM195 5H155V45H195V5ZM105 5H145V45H105V5ZM95 5H55V45H95V5Z" fill="#DF5C2D"/>
</svg>
