<svg width="6222" height="1315" viewBox="0 0 6222 1315" fill="none" xmlns="http://www.w3.org/2000/svg">
<path d="M0 0H4449V537H0V0Z" fill="black"/>
<path d="M66 79H4363V458H66V79Z" fill="white"/>
<path d="M153 537H204V1315H153V537Z" fill="black"/>
<path d="M4225 497H4276V1275H4225V497Z" fill="black"/>
<path d="M4023 497H4074V1275H4023V497Z" fill="black"/>
<path d="M355 537H406V1315H355V537Z" fill="black"/>
<path d="M171 558.527L203.527 526L398.051 720.524L365.524 753.051L171 558.527Z" fill="black"/>
<path d="M347.524 699L380.051 731.527L185.527 926.051L153 893.524L347.524 699Z" fill="black"/>
<path d="M180 907.527L212.527 875L407.051 1069.52L374.524 1102.05L180 907.527Z" fill="black"/>
<path d="M356.524 1048L389.051 1080.53L194.527 1275.05L162 1242.52L356.524 1048Z" fill="black"/>
<path d="M4250.05 853.524L4217.52 886.051L4023 691.527L4055.53 659L4250.05 853.524Z" fill="black"/>
<path d="M4073.53 713.051L4041 680.524L4235.52 486L4268.05 518.527L4073.53 713.051Z" fill="black"/>
<path d="M4258.05 1181.52L4225.52 1214.05L4031 1019.53L4063.53 987L4258.05 1181.52Z" fill="black"/>
<path d="M4081.53 1041.05L4049 1008.52L4243.52 814L4276.05 846.527L4081.53 1041.05Z" fill="black"/>
<path d="M685 79H1033V458H685V79Z" fill="#FFA500"/>
<path d="M711 97H1007V441H711V97Z" fill="white"/>
<path d="M1588 79H1936V458H1588V79Z" fill="#FFA500"/>
<path d="M1614 97H1910V441H1614V97Z" fill="white"/>
<path d="M271.602 160.818H298.023V305.278C298.023 320.193 294.507 333.51 287.476 345.229C280.516 356.876 270.679 366.074 257.966 372.821C245.253 379.497 230.338 382.835 213.222 382.835C196.105 382.835 181.19 379.497 168.477 372.821C155.764 366.074 145.892 356.876 138.861 345.229C131.901 333.51 128.42 320.193 128.42 305.278V160.818H154.841V303.148C154.841 313.801 157.185 323.283 161.872 331.592C166.56 339.831 173.236 346.33 181.901 351.088C190.636 355.776 201.077 358.119 213.222 358.119C225.366 358.119 235.807 355.776 244.543 351.088C253.278 346.33 259.955 339.831 264.571 331.592C269.259 323.283 271.602 313.801 271.602 303.148V160.818ZM463.284 252.011L440.699 258.403C439.278 254.639 437.183 250.982 434.413 247.43C431.714 243.808 428.021 240.825 423.333 238.482C418.646 236.138 412.645 234.966 405.329 234.966C395.315 234.966 386.97 237.274 380.294 241.891C373.689 246.436 370.386 252.224 370.386 259.256C370.386 265.506 372.659 270.442 377.204 274.064C381.75 277.686 388.852 280.705 398.511 283.119L422.801 289.085C437.431 292.636 448.333 298.07 455.507 305.385C462.68 312.629 466.267 321.969 466.267 333.403C466.267 342.778 463.568 351.159 458.17 358.545C452.843 365.932 445.386 371.756 435.798 376.017C426.21 380.278 415.059 382.409 402.346 382.409C385.656 382.409 371.842 378.787 360.904 371.543C349.967 364.298 343.042 353.716 340.13 339.795L363.994 333.83C366.267 342.636 370.564 349.241 376.885 353.645C383.277 358.048 391.622 360.25 401.92 360.25C413.639 360.25 422.943 357.764 429.832 352.793C436.792 347.75 440.272 341.713 440.272 334.682C440.272 329 438.284 324.241 434.306 320.406C430.329 316.5 424.221 313.588 415.983 311.67L388.71 305.278C373.724 301.727 362.716 296.223 355.684 288.766C348.724 281.237 345.244 271.827 345.244 260.534C345.244 251.301 347.836 243.134 353.021 236.031C358.277 228.929 365.414 223.354 374.434 219.305C383.525 215.257 393.824 213.233 405.329 213.233C421.522 213.233 434.235 216.784 443.468 223.886C452.772 230.989 459.377 240.364 463.284 252.011ZM572.721 382.409C556.954 382.409 543.353 378.929 531.918 371.969C520.555 364.938 511.783 355.136 505.604 342.565C499.496 329.923 496.442 315.222 496.442 298.46C496.442 281.699 499.496 266.926 505.604 254.142C511.783 241.287 520.377 231.273 531.386 224.099C542.465 216.855 555.391 213.233 570.164 213.233C578.687 213.233 587.103 214.653 595.413 217.494C603.722 220.335 611.286 224.952 618.104 231.344C624.923 237.665 630.356 246.045 634.404 256.486C638.452 266.926 640.477 279.781 640.477 295.051V305.705H514.34V283.972H614.908C614.908 274.739 613.062 266.5 609.369 259.256C605.746 252.011 600.562 246.294 593.815 242.104C587.138 237.913 579.255 235.818 570.164 235.818C560.15 235.818 551.485 238.304 544.17 243.276C536.925 248.176 531.35 254.568 527.444 262.452C523.538 270.335 521.585 278.787 521.585 287.807V302.295C521.585 314.653 523.715 325.129 527.977 333.723C532.309 342.246 538.31 348.744 545.981 353.219C553.651 357.622 562.565 359.824 572.721 359.824C579.326 359.824 585.292 358.901 590.619 357.054C596.016 355.136 600.668 352.295 604.575 348.531C608.481 344.696 611.499 339.937 613.63 334.256L637.92 341.074C635.363 349.312 631.066 356.557 625.029 362.807C618.992 368.986 611.535 373.815 602.657 377.295C593.779 380.705 583.8 382.409 572.721 382.409ZM845.768 310.818H874.745L899.035 342.778L905.427 351.301L941.648 399.455H912.671L888.808 367.494L882.842 359.398L845.768 310.818ZM950.597 269.909C950.597 292.92 946.442 312.807 938.133 329.568C929.823 346.33 918.424 359.256 903.935 368.347C889.447 377.438 872.898 381.983 854.29 381.983C835.683 381.983 819.134 377.438 804.646 368.347C790.157 359.256 778.758 346.33 770.448 329.568C762.138 312.807 757.984 292.92 757.984 269.909C757.984 246.898 762.138 227.011 770.448 210.25C778.758 193.489 790.157 180.562 804.646 171.472C819.134 162.381 835.683 157.835 854.29 157.835C872.898 157.835 889.447 162.381 903.935 171.472C918.424 180.562 929.823 193.489 938.133 210.25C946.442 227.011 950.597 246.898 950.597 269.909ZM925.029 269.909C925.029 251.017 921.869 235.072 915.548 222.075C909.298 209.078 900.81 199.241 890.086 192.565C879.433 185.889 867.501 182.551 854.29 182.551C841.08 182.551 829.113 185.889 818.388 192.565C807.735 199.241 799.248 209.078 792.927 222.075C786.677 235.072 783.552 251.017 783.552 269.909C783.552 288.801 786.677 304.746 792.927 317.743C799.248 330.74 807.735 340.577 818.388 347.253C829.113 353.929 841.08 357.267 854.29 357.267C867.501 357.267 879.433 353.929 890.086 347.253C900.81 340.577 909.298 330.74 915.548 317.743C921.869 304.746 925.029 288.801 925.029 269.909ZM1124.14 382.835C1113.77 382.835 1104.36 380.882 1095.91 376.976C1087.46 372.999 1080.75 367.281 1075.77 359.824C1070.8 352.295 1068.32 343.205 1068.32 332.551C1068.32 323.176 1070.16 315.577 1073.86 309.753C1077.55 303.858 1082.49 299.241 1088.67 295.903C1094.84 292.565 1101.66 290.08 1109.12 288.446C1116.65 286.741 1124.21 285.392 1131.81 284.398C1141.75 283.119 1149.82 282.161 1156 281.521C1162.25 280.811 1166.79 279.639 1169.63 278.006C1172.54 276.372 1174 273.531 1174 269.483V268.631C1174 258.119 1171.12 249.952 1165.37 244.128C1159.69 238.304 1151.06 235.392 1139.48 235.392C1127.48 235.392 1118.07 238.02 1111.25 243.276C1104.43 248.531 1099.64 254.142 1096.87 260.108L1073 251.585C1077.27 241.642 1082.95 233.901 1090.05 228.361C1097.22 222.75 1105.04 218.844 1113.49 216.642C1122.01 214.369 1130.39 213.233 1138.63 213.233C1143.89 213.233 1149.92 213.872 1156.74 215.151C1163.63 216.358 1170.27 218.879 1176.66 222.714C1183.13 226.55 1188.49 232.338 1192.75 240.08C1197.01 247.821 1199.14 258.19 1199.14 271.188V379H1174V356.841H1172.72C1171.02 360.392 1168.18 364.192 1164.2 368.24C1160.22 372.288 1154.93 375.733 1148.32 378.574C1141.72 381.415 1133.66 382.835 1124.14 382.835ZM1127.98 360.25C1137.92 360.25 1146.3 358.297 1153.12 354.391C1160.01 350.484 1165.19 345.442 1168.67 339.263C1172.22 333.084 1174 326.585 1174 319.767V296.756C1172.93 298.034 1170.59 299.206 1166.97 300.271C1163.42 301.266 1159.3 302.153 1154.61 302.935C1149.99 303.645 1145.48 304.284 1141.08 304.852C1136.75 305.349 1133.23 305.776 1130.53 306.131C1124 306.983 1117.89 308.368 1112.21 310.286C1106.6 312.132 1102.05 314.937 1098.57 318.702C1095.16 322.395 1093.46 327.437 1093.46 333.83C1093.46 342.565 1096.69 349.17 1103.15 353.645C1109.69 358.048 1117.96 360.25 1127.98 360.25ZM1270.17 280.562V379H1245.03V215.364H1269.32V240.932H1271.45C1275.29 232.622 1281.11 225.946 1288.92 220.903C1296.74 215.79 1306.82 213.233 1319.18 213.233C1330.26 213.233 1339.95 215.506 1348.26 220.051C1356.57 224.526 1363.04 231.344 1367.65 240.506C1372.27 249.597 1374.58 261.102 1374.58 275.023V379H1349.43V276.727C1349.43 263.872 1346.1 253.858 1339.42 246.685C1332.74 239.44 1323.58 235.818 1311.93 235.818C1303.91 235.818 1296.74 237.558 1290.41 241.038C1284.16 244.518 1279.23 249.597 1275.61 256.273C1271.98 262.949 1270.17 271.045 1270.17 280.562ZM1482.31 382.409C1468.67 382.409 1456.63 378.964 1446.19 372.075C1435.75 365.115 1427.59 355.314 1421.69 342.672C1415.8 329.959 1412.85 314.938 1412.85 297.608C1412.85 280.42 1415.8 265.506 1421.69 252.864C1427.59 240.222 1435.79 230.456 1446.3 223.567C1456.81 216.678 1468.96 213.233 1482.74 213.233C1493.39 213.233 1501.8 215.009 1507.98 218.56C1514.23 222.04 1518.99 226.017 1522.26 230.491C1525.6 234.895 1528.19 238.517 1530.04 241.358H1532.17V160.818H1557.31V379H1533.02V353.858H1530.04C1528.19 356.841 1525.56 360.605 1522.15 365.151C1518.74 369.625 1513.88 373.638 1507.56 377.189C1501.24 380.669 1492.82 382.409 1482.31 382.409ZM1485.72 359.824C1495.8 359.824 1504.33 357.196 1511.29 351.94C1518.25 346.614 1523.54 339.263 1527.16 329.888C1530.78 320.442 1532.59 309.54 1532.59 297.182C1532.59 284.966 1530.82 274.277 1527.27 265.115C1523.72 255.882 1518.46 248.709 1511.5 243.595C1504.54 238.411 1495.95 235.818 1485.72 235.818C1475.06 235.818 1466.19 238.553 1459.08 244.021C1452.05 249.419 1446.76 256.77 1443.21 266.074C1439.73 275.307 1437.99 285.676 1437.99 297.182C1437.99 308.83 1439.77 319.412 1443.32 328.929C1446.94 338.375 1452.27 345.903 1459.3 351.514C1466.4 357.054 1475.21 359.824 1485.72 359.824ZM1694.63 379V160.818H1826.31V184.256H1721.05V257.977H1819.49V281.415H1721.05V355.562H1828.01V379H1694.63ZM2026.06 215.364V236.67H1941.26V215.364H2026.06ZM1965.97 176.159H1991.12V332.125C1991.12 339.227 1992.15 344.554 1994.21 348.105C1996.34 351.585 1999.03 353.929 2002.3 355.136C2005.64 356.273 2009.16 356.841 2012.85 356.841C2015.62 356.841 2017.89 356.699 2019.67 356.415C2021.44 356.06 2022.86 355.776 2023.93 355.562L2029.04 378.148C2027.34 378.787 2024.96 379.426 2021.9 380.065C2018.85 380.776 2014.98 381.131 2010.29 381.131C2003.19 381.131 1996.23 379.604 1989.41 376.55C1982.66 373.496 1977.05 368.844 1972.58 362.594C1968.18 356.344 1965.97 348.46 1965.97 338.943V176.159ZM2128.6 382.409C2113.83 382.409 2100.86 378.893 2089.71 371.862C2078.63 364.831 2069.97 354.994 2063.72 342.352C2057.54 329.71 2054.45 314.937 2054.45 298.034C2054.45 280.989 2057.54 266.109 2063.72 253.396C2069.97 240.683 2078.63 230.811 2089.71 223.78C2100.86 216.749 2113.83 213.233 2128.6 213.233C2143.37 213.233 2156.3 216.749 2167.38 223.78C2178.53 230.811 2187.19 240.683 2193.37 253.396C2199.62 266.109 2202.75 280.989 2202.75 298.034C2202.75 314.937 2199.62 329.71 2193.37 342.352C2187.19 354.994 2178.53 364.831 2167.38 371.862C2156.3 378.893 2143.37 382.409 2128.6 382.409ZM2128.6 359.824C2139.82 359.824 2149.05 356.947 2156.3 351.195C2163.54 345.442 2168.9 337.878 2172.38 328.503C2175.86 319.128 2177.6 308.972 2177.6 298.034C2177.6 287.097 2175.86 276.905 2172.38 267.459C2168.9 258.013 2163.54 250.378 2156.3 244.554C2149.05 238.73 2139.82 235.818 2128.6 235.818C2117.38 235.818 2108.14 238.73 2100.9 244.554C2093.65 250.378 2088.29 258.013 2084.81 267.459C2081.33 276.905 2079.59 287.097 2079.59 298.034C2079.59 308.972 2081.33 319.128 2084.81 328.503C2088.29 337.878 2093.65 345.442 2100.9 351.195C2108.14 356.947 2117.38 359.824 2128.6 359.824ZM2391.98 382.409C2376.64 382.409 2363.43 378.787 2352.35 371.543C2341.27 364.298 2332.74 354.32 2326.78 341.607C2320.81 328.893 2317.83 314.369 2317.83 298.034C2317.83 281.415 2320.88 266.749 2326.99 254.036C2333.17 241.251 2341.76 231.273 2352.77 224.099C2363.85 216.855 2376.78 213.233 2391.55 213.233C2403.06 213.233 2413.43 215.364 2422.66 219.625C2431.89 223.886 2439.46 229.852 2445.35 237.523C2451.25 245.193 2454.9 254.142 2456.32 264.369H2431.18C2429.26 256.912 2425 250.307 2418.4 244.554C2411.86 238.73 2403.06 235.818 2391.98 235.818C2382.18 235.818 2373.58 238.375 2366.2 243.489C2358.88 248.531 2353.16 255.669 2349.04 264.902C2345 274.064 2342.97 284.824 2342.97 297.182C2342.97 309.824 2344.96 320.832 2348.94 330.207C2352.99 339.582 2358.67 346.862 2365.98 352.047C2373.37 357.232 2382.03 359.824 2391.98 359.824C2398.51 359.824 2404.44 358.688 2409.77 356.415C2415.09 354.142 2419.6 350.875 2423.3 346.614C2426.99 342.352 2429.62 337.239 2431.18 331.273H2456.32C2454.9 340.932 2451.39 349.632 2445.78 357.374C2440.24 365.044 2432.89 371.152 2423.72 375.697C2414.63 380.172 2404.05 382.409 2391.98 382.409ZM2518.22 280.562V379H2493.08V160.818H2518.22V240.932H2520.35C2524.19 232.48 2529.94 225.768 2537.61 220.797C2545.35 215.754 2555.65 213.233 2568.5 213.233C2579.65 213.233 2589.42 215.47 2597.8 219.945C2606.18 224.348 2612.68 231.131 2617.3 240.293C2621.98 249.384 2624.33 260.96 2624.33 275.023V379H2599.19V276.727C2599.19 263.73 2595.81 253.68 2589.06 246.578C2582.39 239.405 2573.12 235.818 2561.26 235.818C2553.02 235.818 2545.63 237.558 2539.1 241.038C2532.64 244.518 2527.52 249.597 2523.76 256.273C2520.07 262.949 2518.22 271.045 2518.22 280.562ZM2718.48 382.835C2708.11 382.835 2698.7 380.882 2690.25 376.976C2681.79 372.999 2675.08 367.281 2670.11 359.824C2665.14 352.295 2662.65 343.205 2662.65 332.551C2662.65 323.176 2664.5 315.577 2668.19 309.753C2671.89 303.858 2676.82 299.241 2683 295.903C2689.18 292.565 2696 290.08 2703.46 288.446C2710.98 286.741 2718.55 285.392 2726.15 284.398C2736.09 283.119 2744.15 282.161 2750.33 281.521C2756.58 280.811 2761.13 279.639 2763.97 278.006C2766.88 276.372 2768.34 273.531 2768.34 269.483V268.631C2768.34 258.119 2765.46 249.952 2759.71 244.128C2754.02 238.304 2745.39 235.392 2733.82 235.392C2721.82 235.392 2712.4 238.02 2705.59 243.276C2698.77 248.531 2693.97 254.142 2691.2 260.108L2667.34 251.585C2671.6 241.642 2677.28 233.901 2684.39 228.361C2691.56 222.75 2699.37 218.844 2707.82 216.642C2716.35 214.369 2724.73 213.233 2732.97 213.233C2738.22 213.233 2744.26 213.872 2751.08 215.151C2757.97 216.358 2764.61 218.879 2771 222.714C2777.46 226.55 2782.82 232.338 2787.09 240.08C2791.35 247.821 2793.48 258.19 2793.48 271.188V379H2768.34V356.841H2767.06C2765.35 360.392 2762.51 364.192 2758.53 368.24C2754.56 372.288 2749.27 375.733 2742.66 378.574C2736.06 381.415 2727.99 382.835 2718.48 382.835ZM2722.31 360.25C2732.26 360.25 2740.64 358.297 2747.45 354.391C2754.34 350.484 2759.53 345.442 2763.01 339.263C2766.56 333.084 2768.34 326.585 2768.34 319.767V296.756C2767.27 298.034 2764.93 299.206 2761.3 300.271C2757.75 301.266 2753.63 302.153 2748.95 302.935C2744.33 303.645 2739.82 304.284 2735.42 304.852C2731.08 305.349 2727.57 305.776 2724.87 306.131C2718.34 306.983 2712.23 308.368 2706.55 310.286C2700.93 312.132 2696.39 314.937 2692.91 318.702C2689.5 322.395 2687.8 327.437 2687.8 333.83C2687.8 342.565 2691.03 349.17 2697.49 353.645C2704.02 358.048 2712.3 360.25 2722.31 360.25ZM2864.51 280.562V379H2839.37V215.364H2863.66V240.932H2865.79C2869.62 232.622 2875.45 225.946 2883.26 220.903C2891.07 215.79 2901.16 213.233 2913.51 213.233C2924.59 213.233 2934.29 215.506 2942.6 220.051C2950.91 224.526 2957.37 231.344 2961.99 240.506C2966.6 249.597 2968.91 261.102 2968.91 275.023V379H2943.77V276.727C2943.77 263.872 2940.43 253.858 2933.76 246.685C2927.08 239.44 2917.92 235.818 2906.27 235.818C2898.24 235.818 2891.07 237.558 2884.75 241.038C2878.5 244.518 2873.56 249.597 2869.94 256.273C2866.32 262.949 2864.51 271.045 2864.51 280.562ZM3080.91 443.773C3068.76 443.773 3058.32 442.21 3049.59 439.085C3040.85 436.031 3033.57 431.983 3027.75 426.94C3021.99 421.969 3017.41 416.642 3014 410.96L3034.03 396.898C3036.3 399.881 3039.18 403.29 3042.66 407.125C3046.14 411.031 3050.9 414.405 3056.94 417.246C3063.04 420.158 3071.03 421.614 3080.91 421.614C3094.12 421.614 3105.02 418.418 3113.61 412.026C3122.21 405.634 3126.5 395.619 3126.5 381.983V348.744H3124.37C3122.53 351.727 3119.9 355.42 3116.49 359.824C3113.15 364.156 3108.32 368.027 3102 371.436C3095.75 374.774 3087.3 376.443 3076.64 376.443C3063.43 376.443 3051.57 373.318 3041.06 367.068C3030.62 360.818 3022.35 351.727 3016.24 339.795C3010.2 327.864 3007.18 313.375 3007.18 296.33C3007.18 279.568 3010.13 264.973 3016.03 252.544C3021.92 240.044 3030.13 230.385 3040.64 223.567C3051.15 216.678 3063.29 213.233 3077.07 213.233C3087.72 213.233 3096.18 215.009 3102.43 218.56C3108.75 222.04 3113.58 226.017 3116.91 230.491C3120.32 234.895 3122.95 238.517 3124.8 241.358H3127.36V215.364H3151.64V383.688C3151.64 397.75 3148.45 409.185 3142.06 417.991C3135.74 426.869 3127.21 433.368 3116.49 437.487C3105.84 441.678 3093.97 443.773 3080.91 443.773ZM3080.05 353.858C3090.14 353.858 3098.66 351.55 3105.62 346.933C3112.58 342.317 3117.87 335.676 3121.5 327.011C3125.12 318.347 3126.93 307.977 3126.93 295.903C3126.93 284.114 3125.15 273.709 3121.6 264.689C3118.05 255.669 3112.8 248.602 3105.84 243.489C3098.88 238.375 3090.28 235.818 3080.05 235.818C3069.4 235.818 3060.52 238.517 3053.42 243.915C3046.39 249.312 3041.1 256.557 3037.55 265.648C3034.07 274.739 3032.33 284.824 3032.33 295.903C3032.33 307.267 3034.1 317.317 3037.65 326.053C3041.28 334.717 3046.6 341.536 3053.63 346.507C3060.74 351.408 3069.54 353.858 3080.05 353.858ZM3266.28 382.409C3250.51 382.409 3236.91 378.929 3225.47 371.969C3214.11 364.938 3205.34 355.136 3199.16 342.565C3193.05 329.923 3190 315.222 3190 298.46C3190 281.699 3193.05 266.926 3199.16 254.142C3205.34 241.287 3213.93 231.273 3224.94 224.099C3236.02 216.855 3248.95 213.233 3263.72 213.233C3272.24 213.233 3280.66 214.653 3288.97 217.494C3297.28 220.335 3304.84 224.952 3311.66 231.344C3318.48 237.665 3323.91 246.045 3327.96 256.486C3332.01 266.926 3334.03 279.781 3334.03 295.051V305.705H3207.89V283.972H3308.46C3308.46 274.739 3306.62 266.5 3302.92 259.256C3299.3 252.011 3294.12 246.294 3287.37 242.104C3280.69 237.913 3272.81 235.818 3263.72 235.818C3253.7 235.818 3245.04 238.304 3237.72 243.276C3230.48 248.176 3224.9 254.568 3221 262.452C3217.09 270.335 3215.14 278.787 3215.14 287.807V302.295C3215.14 314.653 3217.27 325.129 3221.53 333.723C3225.86 342.246 3231.87 348.744 3239.54 353.219C3247.21 357.622 3256.12 359.824 3266.28 359.824C3272.88 359.824 3278.85 358.901 3284.17 357.054C3289.57 355.136 3294.22 352.295 3298.13 348.531C3302.04 344.696 3305.05 339.937 3307.18 334.256L3331.47 341.074C3328.92 349.312 3324.62 356.557 3318.58 362.807C3312.55 368.986 3305.09 373.815 3296.21 377.295C3287.33 380.705 3277.36 382.409 3266.28 382.409ZM3523.13 382.409C3507.79 382.409 3494.58 378.787 3483.5 371.543C3472.42 364.298 3463.9 354.32 3457.93 341.607C3451.96 328.893 3448.98 314.369 3448.98 298.034C3448.98 281.415 3452.04 266.749 3458.14 254.036C3464.32 241.251 3472.92 231.273 3483.92 224.099C3495 216.855 3507.93 213.233 3522.7 213.233C3534.21 213.233 3544.58 215.364 3553.81 219.625C3563.04 223.886 3570.61 229.852 3576.5 237.523C3582.4 245.193 3586.06 254.142 3587.48 264.369H3562.33C3560.42 256.912 3556.15 250.307 3549.55 244.554C3543.02 238.73 3534.21 235.818 3523.13 235.818C3513.33 235.818 3504.73 238.375 3497.35 243.489C3490.03 248.531 3484.32 255.669 3480.2 264.902C3476.15 274.064 3474.12 284.824 3474.12 297.182C3474.12 309.824 3476.11 320.832 3480.09 330.207C3484.14 339.582 3489.82 346.862 3497.13 352.047C3504.52 357.232 3513.19 359.824 3523.13 359.824C3529.66 359.824 3535.59 358.688 3540.92 356.415C3546.25 354.142 3550.76 350.875 3554.45 346.614C3558.14 342.352 3560.77 337.239 3562.33 331.273H3587.48C3586.06 340.932 3582.54 349.632 3576.93 357.374C3571.39 365.044 3564.04 371.152 3554.88 375.697C3545.79 380.172 3535.2 382.409 3523.13 382.409ZM3690.71 382.409C3675.93 382.409 3662.97 378.893 3651.82 371.862C3640.74 364.831 3632.08 354.994 3625.83 342.352C3619.65 329.71 3616.56 314.937 3616.56 298.034C3616.56 280.989 3619.65 266.109 3625.83 253.396C3632.08 240.683 3640.74 230.811 3651.82 223.78C3662.97 216.749 3675.93 213.233 3690.71 213.233C3705.48 213.233 3718.41 216.749 3729.49 223.78C3740.64 230.811 3749.3 240.683 3755.48 253.396C3761.73 266.109 3764.86 280.989 3764.86 298.034C3764.86 314.937 3761.73 329.71 3755.48 342.352C3749.3 354.994 3740.64 364.831 3729.49 371.862C3718.41 378.893 3705.48 382.409 3690.71 382.409ZM3690.71 359.824C3701.93 359.824 3711.16 356.947 3718.41 351.195C3725.65 345.442 3731.01 337.878 3734.49 328.503C3737.97 319.128 3739.71 308.972 3739.71 298.034C3739.71 287.097 3737.97 276.905 3734.49 267.459C3731.01 258.013 3725.65 250.378 3718.41 244.554C3711.16 238.73 3701.93 235.818 3690.71 235.818C3679.49 235.818 3670.25 238.73 3663.01 244.554C3655.76 250.378 3650.4 258.013 3646.92 267.459C3643.44 276.905 3641.7 287.097 3641.7 298.034C3641.7 308.972 3643.44 319.128 3646.92 328.503C3650.4 337.878 3655.76 345.442 3663.01 351.195C3670.25 356.947 3679.49 359.824 3690.71 359.824ZM3828.38 160.818V379H3803.23V160.818H3828.38ZM3940.9 382.409C3926.13 382.409 3913.17 378.893 3902.02 371.862C3890.94 364.831 3882.27 354.994 3876.02 342.352C3869.84 329.71 3866.75 314.937 3866.75 298.034C3866.75 280.989 3869.84 266.109 3876.02 253.396C3882.27 240.683 3890.94 230.811 3902.02 223.78C3913.17 216.749 3926.13 213.233 3940.9 213.233C3955.68 213.233 3968.6 216.749 3979.68 223.78C3990.83 230.811 3999.5 240.683 4005.68 253.396C4011.93 266.109 4015.05 280.989 4015.05 298.034C4015.05 314.937 4011.93 329.71 4005.68 342.352C3999.5 354.994 3990.83 364.831 3979.68 371.862C3968.6 378.893 3955.68 382.409 3940.9 382.409ZM3940.9 359.824C3952.12 359.824 3961.36 356.947 3968.6 351.195C3975.85 345.442 3981.21 337.878 3984.69 328.503C3988.17 319.128 3989.91 308.972 3989.91 298.034C3989.91 287.097 3988.17 276.905 3984.69 267.459C3981.21 258.013 3975.85 250.378 3968.6 244.554C3961.36 238.73 3952.12 235.818 3940.9 235.818C3929.68 235.818 3920.45 238.73 3913.2 244.554C3905.96 250.378 3900.6 258.013 3897.12 267.459C3893.64 276.905 3891.9 287.097 3891.9 298.034C3891.9 308.972 3893.64 319.128 3897.12 328.503C3900.6 337.878 3905.96 345.442 3913.2 351.195C3920.45 356.947 3929.68 359.824 3940.9 359.824ZM4053.43 379V215.364H4077.72V240.08H4079.42C4082.41 231.983 4087.8 225.413 4095.62 220.371C4103.43 215.328 4112.24 212.807 4122.04 212.807C4123.88 212.807 4126.19 212.842 4128.96 212.913C4131.73 212.984 4133.83 213.091 4135.25 213.233V238.801C4134.4 238.588 4132.44 238.268 4129.39 237.842C4126.41 237.345 4123.24 237.097 4119.91 237.097C4111.95 237.097 4104.85 238.766 4098.6 242.104C4092.42 245.371 4087.52 249.916 4083.9 255.74C4080.35 261.493 4078.57 268.062 4078.57 275.449V379H4053.43ZM4280.96 252.011L4258.37 258.403C4256.95 254.639 4254.86 250.982 4252.09 247.43C4249.39 243.808 4245.7 240.825 4241.01 238.482C4236.32 236.138 4230.32 234.966 4223 234.966C4212.99 234.966 4204.65 237.274 4197.97 241.891C4191.36 246.436 4188.06 252.224 4188.06 259.256C4188.06 265.506 4190.33 270.442 4194.88 274.064C4199.43 277.686 4206.53 280.705 4216.19 283.119L4240.48 289.085C4255.11 292.636 4266.01 298.07 4273.18 305.385C4280.36 312.629 4283.94 321.969 4283.94 333.403C4283.94 342.778 4281.24 351.159 4275.85 358.545C4270.52 365.932 4263.06 371.756 4253.47 376.017C4243.89 380.278 4232.74 382.409 4220.02 382.409C4203.33 382.409 4189.52 378.787 4178.58 371.543C4167.64 364.298 4160.72 353.716 4157.81 339.795L4181.67 333.83C4183.94 342.636 4188.24 349.241 4194.56 353.645C4200.95 358.048 4209.3 360.25 4219.6 360.25C4231.31 360.25 4240.62 357.764 4247.51 352.793C4254.47 347.75 4257.95 341.713 4257.95 334.682C4257.95 329 4255.96 324.241 4251.98 320.406C4248 316.5 4241.9 313.588 4233.66 311.67L4206.39 305.278C4191.4 301.727 4180.39 296.223 4173.36 288.766C4166.4 281.237 4162.92 271.827 4162.92 260.534C4162.92 251.301 4165.51 243.134 4170.7 236.031C4175.95 228.929 4183.09 223.354 4192.11 219.305C4201.2 215.257 4211.5 213.233 4223 213.233C4239.2 213.233 4251.91 216.784 4261.14 223.886C4270.45 230.989 4277.05 240.364 4280.96 252.011Z" fill="black"/>
</svg>
