<svg width="6435" height="1315" viewBox="0 0 6435 1315" fill="none" xmlns="http://www.w3.org/2000/svg">
<path d="M0 0H6435V537H0V0Z" fill="black"/>
<path d="M66 79H6370V458H66V79Z" fill="white"/>
<path d="M153 537H204V1315H153V537Z" fill="black"/>
<path d="M6139 537H6190V1315H6139V537Z" fill="black"/>
<path d="M5937 537H5988V1315H5937V537Z" fill="black"/>
<path d="M355 537H406V1315H355V537Z" fill="black"/>
<path d="M171 558.527L203.527 526L398.051 720.524L365.524 753.051L171 558.527Z" fill="black"/>
<path d="M347.524 699L380.051 731.527L185.527 926.051L153 893.524L347.524 699Z" fill="black"/>
<path d="M180 907.527L212.527 875L407.051 1069.52L374.524 1102.05L180 907.527Z" fill="black"/>
<path d="M356.524 1048L389.051 1080.53L194.527 1275.05L162 1242.52L356.524 1048Z" fill="black"/>
<path d="M6164.05 893.524L6131.52 926.051L5937 731.527L5969.53 699L6164.05 893.524Z" fill="black"/>
<path d="M5987.53 753.051L5955 720.524L6149.52 526L6182.05 558.527L5987.53 753.051Z" fill="black"/>
<path d="M6172.05 1221.52L6139.52 1254.05L5945 1059.53L5977.53 1027L6172.05 1221.52Z" fill="black"/>
<path d="M5995.53 1081.05L5963 1048.52L6157.52 854L6190.05 886.527L5995.53 1081.05Z" fill="black"/>
<path d="M1491 79H2967V458H1491V79Z" fill="#FFA500"/>
<path d="M1510 97H2948V441H1510V97Z" fill="white"/>
<path d="M6259.35 134.818L6257.22 291.636H6232.5L6230.37 134.818H6259.35ZM6244.86 354.705C6239.6 354.705 6235.09 352.822 6231.33 349.058C6227.56 345.294 6225.68 340.784 6225.68 335.528C6225.68 330.273 6227.56 325.763 6231.33 321.999C6235.09 318.234 6239.6 316.352 6244.86 316.352C6250.11 316.352 6254.62 318.234 6258.39 321.999C6262.15 325.763 6264.04 330.273 6264.04 335.528C6264.04 339.009 6263.15 342.205 6261.37 345.116C6259.67 348.028 6257.36 350.372 6254.45 352.148C6251.61 353.852 6248.41 354.705 6244.86 354.705Z" fill="black"/>
<path d="M6114.49 353V189.364H6138.78V214.08H6140.48C6143.47 205.983 6148.86 199.413 6156.68 194.371C6164.49 189.328 6173.29 186.807 6183.1 186.807C6184.94 186.807 6187.25 186.842 6190.02 186.913C6192.79 186.984 6194.89 187.091 6196.31 187.233V212.801C6195.45 212.588 6193.5 212.268 6190.45 211.842C6187.46 211.345 6184.3 211.097 6180.97 211.097C6173.01 211.097 6165.91 212.766 6159.66 216.104C6153.48 219.371 6148.58 223.916 6144.96 229.74C6141.41 235.493 6139.63 242.063 6139.63 249.449V353H6114.49Z" fill="black"/>
<path d="M6001.96 356.409C5987.19 356.409 5974.23 352.893 5963.08 345.862C5952 338.831 5943.33 328.994 5937.08 316.352C5930.9 303.71 5927.81 288.938 5927.81 272.034C5927.81 254.989 5930.9 240.109 5937.08 227.396C5943.33 214.683 5952 204.811 5963.08 197.78C5974.23 190.749 5987.19 187.233 6001.96 187.233C6016.73 187.233 6029.66 190.749 6040.74 197.78C6051.89 204.811 6060.55 214.683 6066.73 227.396C6072.98 240.109 6076.11 254.989 6076.11 272.034C6076.11 288.938 6072.98 303.71 6066.73 316.352C6060.55 328.994 6051.89 338.831 6040.74 345.862C6029.66 352.893 6016.73 356.409 6001.96 356.409ZM6001.96 333.824C6013.18 333.824 6022.42 330.947 6029.66 325.195C6036.9 319.442 6042.27 311.878 6045.75 302.503C6049.23 293.128 6050.97 282.972 6050.97 272.034C6050.97 261.097 6049.23 250.905 6045.75 241.459C6042.27 232.013 6036.9 224.378 6029.66 218.554C6022.42 212.73 6013.18 209.818 6001.96 209.818C5990.74 209.818 5981.51 212.73 5974.26 218.554C5967.02 224.378 5961.66 232.013 5958.18 241.459C5954.7 250.905 5952.96 261.097 5952.96 272.034C5952.96 282.972 5954.7 293.128 5958.18 302.503C5961.66 311.878 5967.02 319.442 5974.26 325.195C5981.51 330.947 5990.74 333.824 6001.96 333.824Z" fill="black"/>
<path d="M5894.65 226.011L5872.07 232.403C5870.65 228.639 5868.55 224.982 5865.78 221.43C5863.09 217.808 5859.39 214.825 5854.7 212.482C5850.02 210.138 5844.02 208.966 5836.7 208.966C5826.69 208.966 5818.34 211.274 5811.66 215.891C5805.06 220.436 5801.76 226.224 5801.76 233.256C5801.76 239.506 5804.03 244.442 5808.58 248.064C5813.12 251.686 5820.22 254.705 5829.88 257.119L5854.17 263.085C5868.8 266.636 5879.7 272.07 5886.88 279.385C5894.05 286.629 5897.64 295.969 5897.64 307.403C5897.64 316.778 5894.94 325.159 5889.54 332.545C5884.21 339.932 5876.76 345.756 5867.17 350.017C5857.58 354.278 5846.43 356.409 5833.72 356.409C5817.03 356.409 5803.21 352.787 5792.28 345.543C5781.34 338.298 5774.41 327.716 5771.5 313.795L5795.37 307.83C5797.64 316.636 5801.93 323.242 5808.26 327.645C5814.65 332.048 5822.99 334.25 5833.29 334.25C5845.01 334.25 5854.31 331.764 5861.2 326.793C5868.16 321.75 5871.64 315.713 5871.64 308.682C5871.64 303 5869.66 298.241 5865.68 294.406C5861.7 290.5 5855.59 287.588 5847.35 285.67L5820.08 279.278C5805.1 275.727 5794.09 270.223 5787.06 262.766C5780.09 255.237 5776.62 245.827 5776.62 234.534C5776.62 225.301 5779.21 217.134 5784.39 210.031C5789.65 202.929 5796.79 197.354 5805.81 193.305C5814.9 189.257 5825.19 187.233 5836.7 187.233C5852.89 187.233 5865.61 190.784 5874.84 197.886C5884.14 204.989 5890.75 214.364 5894.65 226.011Z" fill="black"/>
<path d="M5667.12 353V189.364H5691.41V214.08H5693.12C5696.1 205.983 5701.5 199.413 5709.31 194.371C5717.12 189.328 5725.93 186.807 5735.73 186.807C5737.58 186.807 5739.89 186.842 5742.66 186.913C5745.43 186.984 5747.52 187.091 5748.94 187.233V212.801C5748.09 212.588 5746.14 212.268 5743.08 211.842C5740.1 211.345 5736.94 211.097 5733.6 211.097C5725.65 211.097 5718.54 212.766 5712.29 216.104C5706.12 219.371 5701.22 223.916 5697.59 229.74C5694.04 235.493 5692.27 242.063 5692.27 249.449V353H5667.12Z" fill="black"/>
<path d="M5595.93 286.097V189.364H5621.08V353H5595.93V325.301H5594.23C5590.39 333.611 5584.43 340.678 5576.33 346.501C5568.23 352.254 5558.01 355.131 5545.65 355.131C5535.42 355.131 5526.33 352.893 5518.38 348.419C5510.42 343.874 5504.17 337.055 5499.63 327.964C5495.08 318.803 5492.81 307.261 5492.81 293.341V189.364H5517.95V291.636C5517.95 303.568 5521.29 313.085 5527.96 320.188C5534.71 327.29 5543.31 330.841 5553.75 330.841C5560 330.841 5566.35 329.243 5572.82 326.047C5579.35 322.851 5584.82 317.95 5589.22 311.345C5593.7 304.74 5595.93 296.324 5595.93 286.097Z" fill="black"/>
<path d="M5391.71 356.409C5376.37 356.409 5363.16 352.787 5352.08 345.543C5341 338.298 5332.47 328.32 5326.51 315.607C5320.54 302.893 5317.56 288.369 5317.56 272.034C5317.56 255.415 5320.61 240.749 5326.72 228.036C5332.9 215.251 5341.49 205.273 5352.5 198.099C5363.58 190.855 5376.51 187.233 5391.28 187.233C5402.79 187.233 5413.16 189.364 5422.39 193.625C5431.62 197.886 5439.19 203.852 5445.08 211.523C5450.98 219.193 5454.63 228.142 5456.05 238.369H5430.91C5428.99 230.912 5424.73 224.307 5418.13 218.554C5411.59 212.73 5402.79 209.818 5391.71 209.818C5381.91 209.818 5373.31 212.375 5365.93 217.489C5358.61 222.531 5352.89 229.669 5348.77 238.902C5344.73 248.064 5342.7 258.824 5342.7 271.182C5342.7 283.824 5344.69 294.832 5348.67 304.207C5352.72 313.582 5358.4 320.862 5365.71 326.047C5373.1 331.232 5381.76 333.824 5391.71 333.824C5398.24 333.824 5404.17 332.688 5409.5 330.415C5414.83 328.142 5419.34 324.875 5423.03 320.614C5426.72 316.352 5429.35 311.239 5430.91 305.273H5456.05C5454.63 314.932 5451.12 323.632 5445.51 331.374C5439.97 339.044 5432.62 345.152 5423.45 349.697C5414.36 354.172 5403.78 356.409 5391.71 356.409Z" fill="black"/>
<path d="M5129.23 353V189.364H5153.52V214.08H5155.23C5158.21 205.983 5163.61 199.413 5171.42 194.371C5179.23 189.328 5188.04 186.807 5197.84 186.807C5199.69 186.807 5202 186.842 5204.77 186.913C5207.54 186.984 5209.63 187.091 5211.05 187.233V212.801C5210.2 212.588 5208.25 212.268 5205.19 211.842C5202.21 211.345 5199.05 211.097 5195.71 211.097C5187.76 211.097 5180.65 212.766 5174.4 216.104C5168.23 219.371 5163.32 223.916 5159.7 229.74C5156.15 235.493 5154.38 242.063 5154.38 249.449V353H5129.23Z" fill="black"/>
<path d="M5058.04 286.097V189.364H5083.18V353H5058.04V325.301H5056.34C5052.5 333.611 5046.54 340.678 5038.44 346.501C5030.34 352.254 5020.12 355.131 5007.76 355.131C4997.53 355.131 4988.44 352.893 4980.49 348.419C4972.53 343.874 4966.28 337.055 4961.74 327.964C4957.19 318.803 4954.92 307.261 4954.92 293.341V189.364H4980.06V291.636C4980.06 303.568 4983.4 313.085 4990.07 320.188C4996.82 327.29 5005.41 330.841 5015.85 330.841C5022.1 330.841 5028.46 329.243 5034.92 326.047C5041.46 322.851 5046.93 317.95 5051.33 311.345C5055.81 304.74 5058.04 296.324 5058.04 286.097Z" fill="black"/>
<path d="M4842.39 356.409C4827.62 356.409 4814.66 352.893 4803.51 345.862C4792.43 338.831 4783.76 328.994 4777.51 316.352C4771.33 303.71 4768.24 288.938 4768.24 272.034C4768.24 254.989 4771.33 240.109 4777.51 227.396C4783.76 214.683 4792.43 204.811 4803.51 197.78C4814.66 190.749 4827.62 187.233 4842.39 187.233C4857.16 187.233 4870.09 190.749 4881.17 197.78C4892.32 204.811 4900.98 214.683 4907.16 227.396C4913.41 240.109 4916.54 254.989 4916.54 272.034C4916.54 288.938 4913.41 303.71 4907.16 316.352C4900.98 328.994 4892.32 338.831 4881.17 345.862C4870.09 352.893 4857.16 356.409 4842.39 356.409ZM4842.39 333.824C4853.61 333.824 4862.85 330.947 4870.09 325.195C4877.33 319.442 4882.7 311.878 4886.18 302.503C4889.66 293.128 4891.4 282.972 4891.4 272.034C4891.4 261.097 4889.66 250.905 4886.18 241.459C4882.7 232.013 4877.33 224.378 4870.09 218.554C4862.85 212.73 4853.61 209.818 4842.39 209.818C4831.17 209.818 4821.94 212.73 4814.69 218.554C4807.45 224.378 4802.09 232.013 4798.61 241.459C4795.13 250.905 4793.39 261.097 4793.39 272.034C4793.39 282.972 4795.13 293.128 4798.61 302.503C4802.09 311.878 4807.45 319.442 4814.69 325.195C4821.94 330.947 4831.17 333.824 4842.39 333.824Z" fill="black"/>
<path d="M4630.97 414.364C4626.71 414.364 4622.91 414.009 4619.57 413.298C4616.24 412.659 4613.93 412.02 4612.65 411.381L4619.04 389.222C4625.15 390.784 4630.55 391.352 4635.24 390.926C4639.92 390.5 4644.08 388.405 4647.7 384.641C4651.39 380.947 4654.77 374.946 4657.82 366.636L4662.51 353.852L4602 189.364H4629.27L4674.44 319.761H4676.14L4721.31 189.364H4748.59L4679.13 376.864C4676 385.315 4672.13 392.311 4667.52 397.851C4662.9 403.462 4657.54 407.616 4651.43 410.315C4645.39 413.014 4638.57 414.364 4630.97 414.364Z" fill="black"/>
<path d="M4492.59 189.364V210.67H4407.79V189.364H4492.59ZM4432.5 150.159H4457.64V306.125C4457.64 313.227 4458.67 318.554 4460.73 322.105C4462.86 325.585 4465.56 327.929 4468.83 329.136C4472.17 330.273 4475.68 330.841 4479.38 330.841C4482.15 330.841 4484.42 330.699 4486.19 330.415C4487.97 330.06 4489.39 329.776 4490.46 329.562L4495.57 352.148C4493.86 352.787 4491.49 353.426 4488.43 354.065C4485.38 354.776 4481.51 355.131 4476.82 355.131C4469.72 355.131 4462.76 353.604 4455.94 350.55C4449.19 347.496 4443.58 342.844 4439.11 336.594C4434.7 330.344 4432.5 322.46 4432.5 312.943V150.159Z" fill="black"/>
<path d="M4300.53 356.835C4290.16 356.835 4280.75 354.882 4272.3 350.976C4263.85 346.999 4257.14 341.281 4252.17 333.824C4247.19 326.295 4244.71 317.205 4244.71 306.551C4244.71 297.176 4246.55 289.577 4250.25 283.753C4253.94 277.858 4258.88 273.241 4265.06 269.903C4271.24 266.565 4278.05 264.08 4285.51 262.446C4293.04 260.741 4300.6 259.392 4308.2 258.398C4318.15 257.119 4326.21 256.161 4332.39 255.521C4338.64 254.811 4343.18 253.639 4346.02 252.006C4348.93 250.372 4350.39 247.531 4350.39 243.483V242.631C4350.39 232.119 4347.51 223.952 4341.76 218.128C4336.08 212.304 4327.45 209.392 4315.87 209.392C4303.87 209.392 4294.46 212.02 4287.64 217.276C4280.82 222.531 4276.03 228.142 4273.26 234.108L4249.4 225.585C4253.66 215.642 4259.34 207.901 4266.44 202.361C4273.61 196.75 4281.43 192.844 4289.88 190.642C4298.4 188.369 4306.78 187.233 4315.02 187.233C4320.28 187.233 4326.31 187.872 4333.13 189.151C4340.02 190.358 4346.66 192.879 4353.05 196.714C4359.52 200.55 4364.88 206.338 4369.14 214.08C4373.4 221.821 4375.53 232.19 4375.53 245.188V353H4350.39V330.841H4349.11C4347.41 334.392 4344.57 338.192 4340.59 342.24C4336.61 346.288 4331.32 349.733 4324.72 352.574C4318.11 355.415 4310.05 356.835 4300.53 356.835ZM4304.37 334.25C4314.31 334.25 4322.69 332.297 4329.51 328.391C4336.4 324.484 4341.58 319.442 4345.06 313.263C4348.61 307.084 4350.39 300.585 4350.39 293.767V270.756C4349.32 272.034 4346.98 273.206 4343.36 274.271C4339.81 275.266 4335.69 276.153 4331 276.935C4326.38 277.645 4321.87 278.284 4317.47 278.852C4313.14 279.349 4309.62 279.776 4306.92 280.131C4300.39 280.983 4294.28 282.368 4288.6 284.286C4282.99 286.132 4278.44 288.938 4274.96 292.702C4271.55 296.395 4269.85 301.438 4269.85 307.83C4269.85 316.565 4273.08 323.17 4279.54 327.645C4286.08 332.048 4294.35 334.25 4304.37 334.25Z" fill="black"/>
<path d="M4130.18 189.364V210.67H4045.38V189.364H4130.18ZM4070.1 150.159H4095.24V306.125C4095.24 313.227 4096.27 318.554 4098.33 322.105C4100.46 325.585 4103.16 327.929 4106.43 329.136C4109.76 330.273 4113.28 330.841 4116.97 330.841C4119.74 330.841 4122.02 330.699 4123.79 330.415C4125.57 330.06 4126.99 329.776 4128.05 329.562L4133.17 352.148C4131.46 352.787 4129.08 353.426 4126.03 354.065C4122.98 354.776 4119.1 355.131 4114.42 355.131C4107.31 355.131 4100.35 353.604 4093.54 350.55C4086.79 347.496 4081.18 342.844 4076.7 336.594C4072.3 330.344 4070.1 322.46 4070.1 312.943V150.159Z" fill="black"/>
<path d="M3946.49 356.409C3931.72 356.409 3918.76 352.893 3907.61 345.862C3896.53 338.831 3887.86 328.994 3881.61 316.352C3875.43 303.71 3872.34 288.938 3872.34 272.034C3872.34 254.989 3875.43 240.109 3881.61 227.396C3887.86 214.683 3896.53 204.811 3907.61 197.78C3918.76 190.749 3931.72 187.233 3946.49 187.233C3961.27 187.233 3974.19 190.749 3985.27 197.78C3996.42 204.811 4005.09 214.683 4011.27 227.396C4017.52 240.109 4020.64 254.989 4020.64 272.034C4020.64 288.938 4017.52 303.71 4011.27 316.352C4005.09 328.994 3996.42 338.831 3985.27 345.862C3974.19 352.893 3961.27 356.409 3946.49 356.409ZM3946.49 333.824C3957.71 333.824 3966.95 330.947 3974.19 325.195C3981.44 319.442 3986.8 311.878 3990.28 302.503C3993.76 293.128 3995.5 282.972 3995.5 272.034C3995.5 261.097 3993.76 250.905 3990.28 241.459C3986.8 232.013 3981.44 224.378 3974.19 218.554C3966.95 212.73 3957.71 209.818 3946.49 209.818C3935.27 209.818 3926.04 212.73 3918.79 218.554C3911.55 224.378 3906.19 232.013 3902.71 241.459C3899.23 250.905 3897.49 261.097 3897.49 272.034C3897.49 282.972 3899.23 293.128 3902.71 302.503C3906.19 311.878 3911.55 319.442 3918.79 325.195C3926.04 330.947 3935.27 333.824 3946.49 333.824Z" fill="black"/>
<path d="M3767.49 356.409C3752.72 356.409 3739.75 352.893 3728.6 345.862C3717.52 338.831 3708.86 328.994 3702.61 316.352C3696.43 303.71 3693.34 288.938 3693.34 272.034C3693.34 254.989 3696.43 240.109 3702.61 227.396C3708.86 214.683 3717.52 204.811 3728.6 197.78C3739.75 190.749 3752.72 187.233 3767.49 187.233C3782.26 187.233 3795.19 190.749 3806.27 197.78C3817.42 204.811 3826.08 214.683 3832.26 227.396C3838.51 240.109 3841.64 254.989 3841.64 272.034C3841.64 288.938 3838.51 303.71 3832.26 316.352C3826.08 328.994 3817.42 338.831 3806.27 345.862C3795.19 352.893 3782.26 356.409 3767.49 356.409ZM3767.49 333.824C3778.71 333.824 3787.94 330.947 3795.19 325.195C3802.43 319.442 3807.79 311.878 3811.27 302.503C3814.75 293.128 3816.49 282.972 3816.49 272.034C3816.49 261.097 3814.75 250.905 3811.27 241.459C3807.79 232.013 3802.43 224.378 3795.19 218.554C3787.94 212.73 3778.71 209.818 3767.49 209.818C3756.27 209.818 3747.03 212.73 3739.79 218.554C3732.55 224.378 3727.18 232.013 3723.7 241.459C3720.22 250.905 3718.48 261.097 3718.48 272.034C3718.48 282.972 3720.22 293.128 3723.7 302.503C3727.18 311.878 3732.55 319.442 3739.79 325.195C3747.03 330.947 3756.27 333.824 3767.49 333.824Z" fill="black"/>
<path d="M3548.91 254.562V353H3523.77V134.818H3548.91V214.932H3551.04C3554.87 206.48 3560.63 199.768 3568.3 194.797C3576.04 189.754 3586.34 187.233 3599.19 187.233C3610.34 187.233 3620.11 189.47 3628.49 193.945C3636.87 198.348 3643.37 205.131 3647.98 214.293C3652.67 223.384 3655.02 234.96 3655.02 249.023V353H3629.87V250.727C3629.87 237.73 3626.5 227.68 3619.75 220.578C3613.08 213.405 3603.81 209.818 3591.95 209.818C3583.71 209.818 3576.32 211.558 3569.79 215.038C3563.33 218.518 3558.21 223.597 3554.45 230.273C3550.75 236.949 3548.91 245.045 3548.91 254.562Z" fill="black"/>
<path d="M3482.94 226.011L3460.35 232.403C3458.93 228.639 3456.84 224.982 3454.07 221.43C3451.37 217.808 3447.67 214.825 3442.99 212.482C3438.3 210.138 3432.3 208.966 3424.98 208.966C3414.97 208.966 3406.62 211.274 3399.95 215.891C3393.34 220.436 3390.04 226.224 3390.04 233.256C3390.04 239.506 3392.31 244.442 3396.86 248.064C3401.4 251.686 3408.5 254.705 3418.16 257.119L3442.45 263.085C3457.08 266.636 3467.99 272.07 3475.16 279.385C3482.33 286.629 3485.92 295.969 3485.92 307.403C3485.92 316.778 3483.22 325.159 3477.82 332.545C3472.5 339.932 3465.04 345.756 3455.45 350.017C3445.86 354.278 3434.71 356.409 3422 356.409C3405.31 356.409 3391.49 352.787 3380.56 345.543C3369.62 338.298 3362.69 327.716 3359.78 313.795L3383.65 307.83C3385.92 316.636 3390.22 323.242 3396.54 327.645C3402.93 332.048 3411.27 334.25 3421.57 334.25C3433.29 334.25 3442.6 331.764 3449.48 326.793C3456.44 321.75 3459.92 315.713 3459.92 308.682C3459.92 303 3457.94 298.241 3453.96 294.406C3449.98 290.5 3443.87 287.588 3435.64 285.67L3408.36 279.278C3393.38 275.727 3382.37 270.223 3375.34 262.766C3368.38 255.237 3364.9 245.827 3364.9 234.534C3364.9 225.301 3367.49 217.134 3372.67 210.031C3377.93 202.929 3385.07 197.354 3394.09 193.305C3403.18 189.257 3413.48 187.233 3424.98 187.233C3441.17 187.233 3453.89 190.784 3463.12 197.886C3472.42 204.989 3479.03 214.364 3482.94 226.011Z" fill="black"/>
<path d="M3170.13 356.409C3155.35 356.409 3142.39 352.893 3131.24 345.862C3120.16 338.831 3111.5 328.994 3105.25 316.352C3099.07 303.71 3095.98 288.938 3095.98 272.034C3095.98 254.989 3099.07 240.109 3105.25 227.396C3111.5 214.683 3120.16 204.811 3131.24 197.78C3142.39 190.749 3155.35 187.233 3170.13 187.233C3184.9 187.233 3197.82 190.749 3208.9 197.78C3220.05 204.811 3228.72 214.683 3234.9 227.396C3241.15 240.109 3244.27 254.989 3244.27 272.034C3244.27 288.938 3241.15 303.71 3234.9 316.352C3228.72 328.994 3220.05 338.831 3208.9 345.862C3197.82 352.893 3184.9 356.409 3170.13 356.409ZM3170.13 333.824C3181.35 333.824 3190.58 330.947 3197.82 325.195C3205.07 319.442 3210.43 311.878 3213.91 302.503C3217.39 293.128 3219.13 282.972 3219.13 272.034C3219.13 261.097 3217.39 250.905 3213.91 241.459C3210.43 232.013 3205.07 224.378 3197.82 218.554C3190.58 212.73 3181.35 209.818 3170.13 209.818C3158.9 209.818 3149.67 212.73 3142.43 218.554C3135.18 224.378 3129.82 232.013 3126.34 241.459C3122.86 250.905 3121.12 261.097 3121.12 272.034C3121.12 282.972 3122.86 293.128 3126.34 302.503C3129.82 311.878 3135.18 319.442 3142.43 325.195C3149.67 330.947 3158.9 333.824 3170.13 333.824Z" fill="black"/>
<path d="M3067.59 189.364V210.67H2982.79V189.364H3067.59ZM3007.5 150.159H3032.64V306.125C3032.64 313.227 3033.67 318.554 3035.73 322.105C3037.86 325.585 3040.56 327.929 3043.83 329.136C3047.17 330.273 3050.68 330.841 3054.38 330.841C3057.15 330.841 3059.42 330.699 3061.19 330.415C3062.97 330.06 3064.39 329.776 3065.46 329.562L3070.57 352.148C3068.86 352.787 3066.49 353.426 3063.43 354.065C3060.38 354.776 3056.51 355.131 3051.82 355.131C3044.72 355.131 3037.76 353.604 3030.94 350.55C3024.19 347.496 3018.58 342.844 3014.11 336.594C3009.7 330.344 3007.5 322.46 3007.5 312.943V150.159Z" fill="black"/>
<path d="M2800.43 353V189.364H2824.72V214.08H2826.42C2829.4 205.983 2834.8 199.413 2842.61 194.371C2850.43 189.328 2859.23 186.807 2869.03 186.807C2870.88 186.807 2873.19 186.842 2875.96 186.913C2878.73 186.984 2880.82 187.091 2882.24 187.233V212.801C2881.39 212.588 2879.44 212.268 2876.38 211.842C2873.4 211.345 2870.24 211.097 2866.9 211.097C2858.95 211.097 2851.85 212.766 2845.6 216.104C2839.42 219.371 2834.52 223.916 2830.89 229.74C2827.34 235.493 2825.57 242.063 2825.57 249.449V353H2800.43Z" fill="black"/>
<path d="M2679.54 356.835C2669.17 356.835 2659.76 354.882 2651.3 350.976C2642.85 346.999 2636.14 341.281 2631.17 333.824C2626.2 326.295 2623.71 317.205 2623.71 306.551C2623.71 297.176 2625.56 289.577 2629.25 283.753C2632.94 277.858 2637.88 273.241 2644.06 269.903C2650.24 266.565 2657.06 264.08 2664.51 262.446C2672.04 260.741 2679.61 259.392 2687.21 258.398C2697.15 257.119 2705.21 256.161 2711.39 255.521C2717.64 254.811 2722.18 253.639 2725.03 252.006C2727.94 250.372 2729.39 247.531 2729.39 243.483V242.631C2729.39 232.119 2726.52 223.952 2720.76 218.128C2715.08 212.304 2706.45 209.392 2694.88 209.392C2682.87 209.392 2673.46 212.02 2666.65 217.276C2659.83 222.531 2655.03 228.142 2652.26 234.108L2628.4 225.585C2632.66 215.642 2638.34 207.901 2645.45 202.361C2652.62 196.75 2660.43 192.844 2668.88 190.642C2677.41 188.369 2685.79 187.233 2694.02 187.233C2699.28 187.233 2705.32 187.872 2712.14 189.151C2719.02 190.358 2725.67 192.879 2732.06 196.714C2738.52 200.55 2743.88 206.338 2748.14 214.08C2752.41 221.821 2754.54 232.19 2754.54 245.188V353H2729.39V330.841H2728.12C2726.41 334.392 2723.57 338.192 2719.59 342.24C2715.62 346.288 2710.32 349.733 2703.72 352.574C2697.11 355.415 2689.05 356.835 2679.54 356.835ZM2683.37 334.25C2693.31 334.25 2701.69 332.297 2708.51 328.391C2715.4 324.484 2720.59 319.442 2724.07 313.263C2727.62 307.084 2729.39 300.585 2729.39 293.767V270.756C2728.33 272.034 2725.98 273.206 2722.36 274.271C2718.81 275.266 2714.69 276.153 2710 276.935C2705.39 277.645 2700.88 278.284 2696.47 278.852C2692.14 279.349 2688.63 279.776 2685.93 280.131C2679.39 280.983 2673.29 282.368 2667.6 284.286C2661.99 286.132 2657.45 288.938 2653.97 292.702C2650.56 296.395 2648.85 301.438 2648.85 307.83C2648.85 316.565 2652.09 323.17 2658.55 327.645C2665.08 332.048 2673.36 334.25 2683.37 334.25Z" fill="black"/>
<path d="M2448.46 353V134.818H2473.61V215.358H2475.74C2477.58 212.517 2480.14 208.895 2483.41 204.491C2486.74 200.017 2491.5 196.04 2497.68 192.56C2503.93 189.009 2512.38 187.233 2523.04 187.233C2536.82 187.233 2548.96 190.678 2559.47 197.567C2569.98 204.456 2578.19 214.222 2584.08 226.864C2589.98 239.506 2592.92 254.42 2592.92 271.608C2592.92 288.938 2589.98 303.959 2584.08 316.672C2578.19 329.314 2570.02 339.115 2559.58 346.075C2549.14 352.964 2537.1 356.409 2523.46 356.409C2512.95 356.409 2504.54 354.669 2498.21 351.189C2491.89 347.638 2487.03 343.625 2483.62 339.151C2480.21 334.605 2477.58 330.841 2475.74 327.858H2472.75V353H2448.46ZM2473.18 271.182C2473.18 283.54 2474.99 294.442 2478.61 303.888C2482.23 313.263 2487.53 320.614 2494.49 325.94C2501.45 331.196 2509.97 333.824 2520.05 333.824C2530.57 333.824 2539.34 331.054 2546.37 325.514C2553.47 319.903 2558.8 312.375 2562.35 302.929C2565.97 293.412 2567.78 282.83 2567.78 271.182C2567.78 259.676 2566.01 249.307 2562.45 240.074C2558.97 230.77 2553.68 223.419 2546.58 218.021C2539.55 212.553 2530.71 209.818 2520.05 209.818C2509.83 209.818 2501.23 212.411 2494.27 217.595C2487.31 222.709 2482.06 229.882 2478.51 239.115C2474.95 248.277 2473.18 258.966 2473.18 271.182Z" fill="black"/>
<path d="M2339.05 356.409C2323.29 356.409 2309.68 352.929 2298.25 345.969C2286.89 338.938 2278.12 329.136 2271.94 316.565C2265.83 303.923 2262.77 289.222 2262.77 272.46C2262.77 255.699 2265.83 240.926 2271.94 228.142C2278.12 215.287 2286.71 205.273 2297.72 198.099C2308.8 190.855 2321.72 187.233 2336.5 187.233C2345.02 187.233 2353.43 188.653 2361.74 191.494C2370.05 194.335 2377.62 198.952 2384.44 205.344C2391.25 211.665 2396.69 220.045 2400.74 230.486C2404.78 240.926 2406.81 253.781 2406.81 269.051V279.705H2280.67V257.972H2381.24C2381.24 248.739 2379.39 240.5 2375.7 233.256C2372.08 226.011 2366.89 220.294 2360.15 216.104C2353.47 211.913 2345.59 209.818 2336.5 209.818C2326.48 209.818 2317.82 212.304 2310.5 217.276C2303.26 222.176 2297.68 228.568 2293.78 236.452C2289.87 244.335 2287.92 252.787 2287.92 261.807V276.295C2287.92 288.653 2290.05 299.129 2294.31 307.723C2298.64 316.246 2304.64 322.744 2312.31 327.219C2319.98 331.622 2328.9 333.824 2339.05 333.824C2345.66 333.824 2351.62 332.901 2356.95 331.054C2362.35 329.136 2367 326.295 2370.91 322.531C2374.81 318.696 2377.83 313.938 2379.96 308.256L2404.25 315.074C2401.69 323.313 2397.4 330.557 2391.36 336.807C2385.32 342.986 2377.87 347.815 2368.99 351.295C2360.11 354.705 2350.13 356.409 2339.05 356.409Z" fill="black"/>
<path d="M2169.34 356.409C2154 356.409 2140.79 352.787 2129.71 345.543C2118.63 338.298 2110.11 328.32 2104.15 315.607C2098.18 302.893 2095.2 288.369 2095.2 272.034C2095.2 255.415 2098.25 240.749 2104.36 228.036C2110.54 215.251 2119.13 205.273 2130.14 198.099C2141.22 190.855 2154.15 187.233 2168.92 187.233C2180.42 187.233 2190.79 189.364 2200.03 193.625C2209.26 197.886 2216.82 203.852 2222.72 211.523C2228.61 219.193 2232.27 228.142 2233.69 238.369H2208.55C2206.63 230.912 2202.37 224.307 2195.76 218.554C2189.23 212.73 2180.42 209.818 2169.34 209.818C2159.54 209.818 2150.95 212.375 2143.56 217.489C2136.25 222.531 2130.53 229.669 2126.41 238.902C2122.36 248.064 2120.34 258.824 2120.34 271.182C2120.34 283.824 2122.33 294.832 2126.3 304.207C2130.35 313.582 2136.03 320.862 2143.35 326.047C2150.74 331.232 2159.4 333.824 2169.34 333.824C2175.88 333.824 2181.81 332.688 2187.14 330.415C2192.46 328.142 2196.97 324.875 2200.67 320.614C2204.36 316.352 2206.99 311.239 2208.55 305.273H2233.69C2232.27 314.932 2228.75 323.632 2223.14 331.374C2217.6 339.044 2210.25 345.152 2201.09 349.697C2192 354.172 2181.42 356.409 2169.34 356.409Z" fill="black"/>
<path d="M1981.98 356.835C1971.61 356.835 1962.2 354.882 1953.75 350.976C1945.29 346.999 1938.58 341.281 1933.61 333.824C1928.64 326.295 1926.15 317.205 1926.15 306.551C1926.15 297.176 1928 289.577 1931.69 283.753C1935.39 277.858 1940.32 273.241 1946.5 269.903C1952.68 266.565 1959.5 264.08 1966.96 262.446C1974.48 260.741 1982.05 259.392 1989.65 258.398C1999.59 257.119 2007.65 256.161 2013.83 255.521C2020.08 254.811 2024.63 253.639 2027.47 252.006C2030.38 250.372 2031.84 247.531 2031.84 243.483V242.631C2031.84 232.119 2028.96 223.952 2023.21 218.128C2017.52 212.304 2008.89 209.392 1997.32 209.392C1985.32 209.392 1975.9 212.02 1969.09 217.276C1962.27 222.531 1957.47 228.142 1954.7 234.108L1930.84 225.585C1935.1 215.642 1940.78 207.901 1947.89 202.361C1955.06 196.75 1962.87 192.844 1971.32 190.642C1979.85 188.369 1988.23 187.233 1996.47 187.233C2001.72 187.233 2007.76 187.872 2014.58 189.151C2021.47 190.358 2028.11 192.879 2034.5 196.714C2040.96 200.55 2046.32 206.338 2050.59 214.08C2054.85 221.821 2056.98 232.19 2056.98 245.188V353H2031.84V330.841H2030.56C2028.85 334.392 2026.01 338.192 2022.03 342.24C2018.06 346.288 2012.77 349.733 2006.16 352.574C1999.56 355.415 1991.49 356.835 1981.98 356.835ZM1985.81 334.25C1995.76 334.25 2004.14 332.297 2010.95 328.391C2017.84 324.484 2023.03 319.442 2026.51 313.263C2030.06 307.084 2031.84 300.585 2031.84 293.767V270.756C2030.77 272.034 2028.43 273.206 2024.8 274.271C2021.25 275.266 2017.13 276.153 2012.45 276.935C2007.83 277.645 2003.32 278.284 1998.92 278.852C1994.58 279.349 1991.07 279.776 1988.37 280.131C1981.84 280.983 1975.73 282.368 1970.05 284.286C1964.43 286.132 1959.89 288.938 1956.41 292.702C1953 296.395 1951.3 301.438 1951.3 307.83C1951.3 316.565 1954.53 323.17 1960.99 327.645C1967.52 332.048 1975.8 334.25 1985.81 334.25Z" fill="black"/>
<path d="M1751.01 414.364V189.364H1775.3V215.358H1778.28C1780.13 212.517 1782.69 208.895 1785.95 204.491C1789.29 200.017 1794.05 196.04 1800.23 192.56C1806.48 189.009 1814.93 187.233 1825.59 187.233C1839.36 187.233 1851.51 190.678 1862.02 197.567C1872.53 204.456 1880.73 214.222 1886.63 226.864C1892.52 239.506 1895.47 254.42 1895.47 271.608C1895.47 288.938 1892.52 303.959 1886.63 316.672C1880.73 329.314 1872.57 339.115 1862.13 346.075C1851.69 352.965 1839.65 356.409 1826.01 356.409C1815.5 356.409 1807.08 354.669 1800.76 351.189C1794.44 347.638 1789.58 343.625 1786.17 339.151C1782.76 334.605 1780.13 330.841 1778.28 327.858H1776.15V414.364H1751.01ZM1775.73 271.182C1775.73 283.54 1777.54 294.442 1781.16 303.888C1784.78 313.263 1790.07 320.614 1797.03 325.94C1803.99 331.196 1812.52 333.824 1822.6 333.824C1833.11 333.824 1841.89 331.054 1848.92 325.514C1856.02 319.903 1861.35 312.375 1864.9 302.929C1868.52 293.412 1870.33 282.83 1870.33 271.182C1870.33 259.676 1868.55 249.307 1865 240.074C1861.52 230.77 1856.23 223.419 1849.13 218.021C1842.1 212.553 1833.26 209.818 1822.6 209.818C1812.38 209.818 1803.78 212.411 1796.82 217.595C1789.86 222.709 1784.61 229.882 1781.05 239.115C1777.5 248.277 1775.73 258.966 1775.73 271.182Z" fill="black"/>
<path d="M1710.18 226.011L1687.6 232.403C1686.18 228.639 1684.08 224.982 1681.31 221.43C1678.61 217.808 1674.92 214.825 1670.23 212.482C1665.54 210.138 1659.54 208.966 1652.23 208.966C1642.21 208.966 1633.87 211.274 1627.19 215.891C1620.59 220.436 1617.28 226.224 1617.28 233.256C1617.28 239.506 1619.56 244.442 1624.1 248.064C1628.65 251.686 1635.75 254.705 1645.41 257.119L1669.7 263.085C1684.33 266.636 1695.23 272.07 1702.41 279.385C1709.58 286.629 1713.17 295.969 1713.17 307.403C1713.17 316.778 1710.47 325.159 1705.07 332.545C1699.74 339.932 1692.28 345.756 1682.7 350.017C1673.11 354.278 1661.96 356.409 1649.24 356.409C1632.55 356.409 1618.74 352.787 1607.8 345.543C1596.87 338.298 1589.94 327.716 1587.03 313.795L1610.89 307.83C1613.17 316.636 1617.46 323.242 1623.78 327.645C1630.18 332.048 1638.52 334.25 1648.82 334.25C1660.54 334.25 1669.84 331.764 1676.73 326.793C1683.69 321.75 1687.17 315.713 1687.17 308.682C1687.17 303 1685.18 298.241 1681.2 294.406C1677.23 290.5 1671.12 287.588 1662.88 285.67L1635.61 279.278C1620.62 275.727 1609.61 270.223 1602.58 262.766C1595.62 255.237 1592.14 245.827 1592.14 234.534C1592.14 225.301 1594.73 217.134 1599.92 210.031C1605.18 202.929 1612.31 197.354 1621.33 193.305C1630.42 189.257 1640.72 187.233 1652.23 187.233C1668.42 187.233 1681.13 190.784 1690.37 197.886C1699.67 204.989 1706.28 214.364 1710.18 226.011Z" fill="black"/>
<path d="M1403.9 356.409C1388.13 356.409 1374.53 352.929 1363.09 345.969C1351.73 338.938 1342.96 329.136 1336.78 316.565C1330.67 303.923 1327.62 289.222 1327.62 272.46C1327.62 255.699 1330.67 240.926 1336.78 228.142C1342.96 215.287 1351.55 205.273 1362.56 198.099C1373.64 190.855 1386.57 187.233 1401.34 187.233C1409.86 187.233 1418.28 188.653 1426.59 191.494C1434.9 194.335 1442.46 198.952 1449.28 205.344C1456.1 211.665 1461.53 220.045 1465.58 230.486C1469.63 240.926 1471.65 253.781 1471.65 269.051V279.705H1345.52V257.972H1446.08C1446.08 248.739 1444.24 240.5 1440.54 233.256C1436.92 226.011 1431.74 220.294 1424.99 216.104C1418.31 211.913 1410.43 209.818 1401.34 209.818C1391.33 209.818 1382.66 212.304 1375.35 217.276C1368.1 222.176 1362.53 228.568 1358.62 236.452C1354.71 244.335 1352.76 252.787 1352.76 261.807V276.295C1352.76 288.653 1354.89 299.129 1359.15 307.723C1363.48 316.246 1369.49 322.744 1377.16 327.219C1384.83 331.622 1393.74 333.824 1403.9 333.824C1410.5 333.824 1416.47 332.901 1421.79 331.054C1427.19 329.136 1431.84 326.295 1435.75 322.531C1439.66 318.696 1442.68 313.938 1444.81 308.256L1469.1 315.074C1466.54 323.313 1462.24 330.557 1456.2 336.807C1450.17 342.986 1442.71 347.815 1433.83 351.295C1424.95 354.705 1414.98 356.409 1403.9 356.409Z" fill="black"/>
<path d="M1183.18 254.562V353H1158.04V134.818H1183.18V214.932H1185.32C1189.15 206.48 1194.9 199.768 1202.57 194.797C1210.32 189.754 1220.61 187.233 1233.47 187.233C1244.62 187.233 1254.38 189.47 1262.77 193.945C1271.15 198.348 1277.64 205.131 1282.26 214.293C1286.95 223.384 1289.29 234.96 1289.29 249.023V353H1264.15V250.727C1264.15 237.73 1260.78 227.68 1254.03 220.578C1247.35 213.405 1238.09 209.818 1226.22 209.818C1217.99 209.818 1210.6 211.558 1204.07 215.038C1197.6 218.518 1192.49 223.597 1188.72 230.273C1185.03 236.949 1183.18 245.045 1183.18 254.562Z" fill="black"/>
<path d="M1116.71 189.364V210.67H1031.91V189.364H1116.71ZM1056.62 150.159H1081.76V306.125C1081.76 313.227 1082.79 318.554 1084.85 322.105C1086.98 325.585 1089.68 327.929 1092.95 329.136C1096.29 330.273 1099.8 330.841 1103.5 330.841C1106.27 330.841 1108.54 330.699 1110.32 330.415C1112.09 330.06 1113.51 329.776 1114.58 329.562L1119.69 352.148C1117.99 352.787 1115.61 353.426 1112.55 354.065C1109.5 354.776 1105.63 355.131 1100.94 355.131C1093.84 355.131 1086.88 353.604 1080.06 350.55C1073.31 347.496 1067.7 342.844 1063.23 336.594C1058.82 330.344 1056.62 322.46 1056.62 312.943V150.159Z" fill="black"/>
<path d="M920.338 226.011L897.753 232.403C896.333 228.639 894.238 224.982 891.468 221.43C888.769 217.808 885.076 214.825 880.388 212.482C875.701 210.138 869.699 208.966 862.384 208.966C852.37 208.966 844.024 211.274 837.348 215.891C830.743 220.436 827.441 226.224 827.441 233.256C827.441 239.506 829.713 244.442 834.259 248.064C838.804 251.686 845.907 254.705 855.566 257.119L879.855 263.085C894.486 266.636 905.388 272.07 912.561 279.385C919.735 286.629 923.321 295.969 923.321 307.403C923.321 316.778 920.622 325.159 915.225 332.545C909.898 339.932 902.441 345.756 892.853 350.017C883.265 354.278 872.114 356.409 859.401 356.409C842.711 356.409 828.897 352.787 817.959 345.543C807.022 338.298 800.097 327.716 797.185 313.795L821.049 307.83C823.321 316.636 827.618 323.242 833.939 327.645C840.331 332.048 848.676 334.25 858.975 334.25C870.693 334.25 879.997 331.764 886.887 326.793C893.847 321.75 897.327 315.713 897.327 308.682C897.327 303 895.338 298.241 891.361 294.406C887.384 290.5 881.276 287.588 873.037 285.67L845.765 279.278C830.779 275.727 819.77 270.223 812.739 262.766C805.779 255.237 802.299 245.827 802.299 234.534C802.299 225.301 804.891 217.134 810.076 210.031C815.331 202.929 822.469 197.354 831.489 193.305C840.58 189.257 850.878 187.233 862.384 187.233C878.577 187.233 891.29 190.784 900.523 197.886C909.827 204.989 916.432 214.364 920.338 226.011Z" fill="black"/>
<path d="M763.6 226.011L741.015 232.403C739.594 228.639 737.499 224.982 734.729 221.43C732.031 217.808 728.337 214.825 723.65 212.482C718.962 210.138 712.961 208.966 705.646 208.966C695.631 208.966 687.286 211.274 680.61 215.891C674.005 220.436 670.702 226.224 670.702 233.256C670.702 239.506 672.975 244.442 677.521 248.064C682.066 251.686 689.168 254.705 698.827 257.119L723.117 263.085C737.748 266.636 748.65 272.07 755.823 279.385C762.996 286.629 766.583 295.969 766.583 307.403C766.583 316.778 763.884 325.159 758.486 332.545C753.16 339.932 745.702 345.756 736.114 350.017C726.526 354.278 715.376 356.409 702.663 356.409C685.972 356.409 672.158 352.787 661.221 345.543C650.283 338.298 643.359 327.716 640.447 313.795L664.31 307.83C666.583 316.636 670.88 323.242 677.201 327.645C683.593 332.048 691.938 334.25 702.236 334.25C713.955 334.25 723.259 331.764 730.148 326.793C737.109 321.75 740.589 315.713 740.589 308.682C740.589 303 738.6 298.241 734.623 294.406C730.646 290.5 724.538 287.588 716.299 285.67L689.026 279.278C674.04 275.727 663.032 270.223 656.001 262.766C649.04 255.237 645.56 245.827 645.56 234.534C645.56 225.301 648.153 217.134 653.337 210.031C658.593 202.929 665.731 197.354 674.751 193.305C683.842 189.257 694.14 187.233 705.646 187.233C721.839 187.233 734.552 190.784 743.785 197.886C753.089 204.989 759.694 214.364 763.6 226.011Z" fill="black"/>
<path d="M541.69 356.409C525.922 356.409 512.322 352.929 500.887 345.969C489.523 338.938 480.752 329.136 474.573 316.565C468.465 303.923 465.411 289.222 465.411 272.46C465.411 255.699 468.465 240.926 474.573 228.142C480.752 215.287 489.346 205.273 500.354 198.099C511.434 190.855 524.36 187.233 539.133 187.233C547.655 187.233 556.072 188.653 564.381 191.494C572.691 194.335 580.255 198.952 587.073 205.344C593.891 211.665 599.325 220.045 603.373 230.486C607.421 240.926 609.445 253.781 609.445 269.051V279.705H483.309V257.972H583.877C583.877 248.739 582.03 240.5 578.337 233.256C574.715 226.011 569.53 220.294 562.783 216.104C556.107 211.913 548.224 209.818 539.133 209.818C529.119 209.818 520.454 212.304 513.138 217.276C505.894 222.176 500.319 228.568 496.413 236.452C492.506 244.335 490.553 252.787 490.553 261.807V276.295C490.553 288.653 492.684 299.129 496.945 307.723C501.278 316.246 507.279 322.744 514.949 327.219C522.62 331.622 531.533 333.824 541.69 333.824C548.295 333.824 554.261 332.901 559.587 331.054C564.985 329.136 569.637 326.295 573.543 322.531C577.449 318.696 580.468 313.938 582.599 308.256L606.888 315.074C604.332 323.313 600.035 330.557 593.998 336.807C587.961 342.986 580.503 347.815 571.626 351.295C562.748 354.705 552.769 356.409 541.69 356.409Z" fill="black"/>
<path d="M366.441 353V189.364H390.731V214.08H392.435C395.418 205.983 400.816 199.413 408.629 194.371C416.441 189.328 425.248 186.807 435.049 186.807C436.896 186.807 439.204 186.842 441.974 186.913C444.744 186.984 446.839 187.091 448.259 187.233V212.801C447.407 212.588 445.454 212.268 442.4 211.842C439.417 211.345 436.256 211.097 432.918 211.097C424.964 211.097 417.861 212.766 411.611 216.104C405.433 219.371 400.532 223.916 396.91 229.74C393.359 235.493 391.583 242.063 391.583 249.449V353H366.441Z" fill="black"/>
<path d="M179.42 353V134.818H253.142C270.258 134.818 284.25 137.908 295.116 144.087C306.054 150.195 314.151 158.469 319.406 168.909C324.662 179.349 327.29 190.997 327.29 203.852C327.29 216.707 324.662 228.391 319.406 238.902C314.222 249.413 306.196 257.794 295.33 264.044C284.463 270.223 270.543 273.312 253.568 273.312H200.727V249.875H252.716C264.435 249.875 273.845 247.851 280.947 243.803C288.05 239.754 293.199 234.286 296.395 227.396C299.662 220.436 301.295 212.588 301.295 203.852C301.295 195.116 299.662 187.304 296.395 180.415C293.199 173.526 288.014 168.128 280.841 164.222C273.668 160.244 264.151 158.256 252.29 158.256H205.841V353H179.42Z" fill="black"/>
</svg>
