<svg width="307" height="524" viewBox="0 0 307 524" fill="none" xmlns="http://www.w3.org/2000/svg">
<rect width="307" height="524" fill="white"/>
<rect x="144" y="247" width="20" height="277" fill="black"/>
<path d="M144.938 5.19053C148.827 -1.25458 158.173 -1.25457 162.062 5.19054L304.997 242.084C309.018 248.749 304.219 257.25 296.435 257.25H10.5653C2.78133 257.25 -2.01822 248.749 2.00313 242.084L144.938 5.19053Z" fill="#FF0000"/>
<path d="M153 7L296.76 249.25H9.23978L153 7Z" fill="white"/>
<ellipse cx="153.965" cy="130.496" rx="10.9646" ry="9.4964" fill="black"/>
<path d="M165.94 106.838C164.497 121.242 143.503 121.243 142.06 106.838L137.136 57.6964C136.428 50.6314 141.976 44.5 149.076 44.5H158.924C166.024 44.5 171.572 50.6314 170.864 57.6964L165.94 106.838Z" fill="black"/>
<ellipse cx="153.5" cy="196.866" rx="46.5" ry="44.8659" fill="#FF9F3F"/>
<path d="M193.521 180.107C194.968 183.514 195.98 187.146 196.486 190.935L195.99 191.001C196.233 192.817 196.358 194.67 196.358 196.552C196.358 198.434 196.233 200.287 195.99 202.103L196.486 202.169C195.98 205.958 194.968 209.59 193.521 212.998L193.061 212.802C191.601 216.239 189.691 219.445 187.405 222.35L187.798 222.66C185.478 225.606 182.776 228.246 179.763 230.506L179.463 230.106C176.517 232.316 173.272 234.159 169.797 235.566L169.985 236.03C166.561 237.416 162.917 238.383 159.119 238.867L159.056 238.371C157.237 238.602 155.383 238.722 153.5 238.722C151.617 238.722 149.763 238.602 147.944 238.371L147.881 238.867C144.083 238.383 140.439 237.416 137.016 236.03L137.203 235.566C133.728 234.159 130.483 232.316 127.537 230.106L127.237 230.506C124.224 228.246 121.522 225.606 119.202 222.66L119.595 222.35C117.309 219.445 115.399 216.239 113.94 212.802L113.479 212.998C112.032 209.59 111.021 205.958 110.514 202.169L111.01 202.103C110.767 200.287 110.642 198.434 110.642 196.552C110.642 194.67 110.767 192.817 111.01 191.001L110.514 190.935C111.021 187.146 112.032 183.514 113.479 180.107L113.94 180.302C115.399 176.865 117.309 173.659 119.595 170.754L119.202 170.445C121.522 167.498 124.224 164.858 127.237 162.598L127.537 162.998C130.483 160.788 133.728 158.945 137.203 157.538L137.016 157.075C140.439 155.688 144.083 154.721 147.881 154.238L147.944 154.734C149.763 154.502 151.617 154.382 153.5 154.382C155.383 154.382 157.237 154.502 159.056 154.733L159.119 154.238C162.917 154.721 166.561 155.688 169.985 157.075L169.797 157.538C173.272 158.945 176.517 160.788 179.463 162.998L179.763 162.598C182.776 164.858 185.478 167.498 187.798 170.445L187.405 170.754C189.691 173.659 191.601 176.865 193.061 180.302L193.521 180.107Z" stroke="#FF0000" stroke-dasharray="10 10"/>
</svg>
