<?xml version="1.0" encoding="UTF-8" standalone="no"?>
<!DOCTYPE svg PUBLIC "-//W3C//DTD SVG 1.1//EN" "http://www.w3.org/Graphics/SVG/1.1/DTD/svg11.dtd">
<svg width="100%" height="100" viewBox="0 0 58 33" version="1.1" xmlns="http://www.w3.org/2000/svg" xmlns:xlink="http://www.w3.org/1999/xlink" xml:space="preserve" xmlns:serif="http://www.serif.com/" style="fill-rule:evenodd;clip-rule:evenodd;stroke-linejoin:round;stroke-miterlimit:2;">
    <g transform="matrix(1,0,0,1,-24.8097,-3.80794)">
        <g transform="matrix(0.180455,0,0,0.156279,-25.8621,-11.0309)">
            <path d="M486.941,207.084C486.941,206.452 486.497,205.939 485.949,205.939L394.788,205.17C393.873,205.17 393.13,206.027 393.13,207.084C393.13,207.084 393.672,215.009 393.868,226.228C393.913,228.809 393.859,231.563 393.838,234.432C393.644,261.288 393.141,298.245 393.141,298.245C393.141,299.295 393.879,300.147 394.788,300.147C394.788,300.147 406.818,300.201 422.136,300.165C448.989,300.1 485.949,299.817 485.949,299.817C486.7,299.817 487.31,299.113 487.31,298.245L486.941,207.084ZM484.952,208.239L484.594,296.663C477.703,296.611 445.946,296.382 422.136,296.325C410.154,296.296 400.184,296.323 396.41,296.336C396.305,288.442 395.907,257.659 395.738,234.432C395.717,231.563 395.664,228.809 395.709,226.228C395.848,218.276 396.16,211.979 396.33,208.986L484.952,208.239Z" style="fill:rgb(206,125,0);"/>
        </g>
        <g transform="matrix(0.180455,0,0,0.156279,-25.8621,-28.1463)">
            <path d="M486.941,207.084C486.941,206.452 486.497,205.939 485.949,205.939C485.949,205.939 476.246,205.566 463.158,205.173C456.197,204.963 448.287,204.625 440.368,204.568C435.747,204.534 431.126,204.646 426.694,204.731C409.266,205.065 394.788,205.571 394.788,205.571C394.064,205.571 393.477,206.248 393.477,207.084C393.477,207.084 393.773,219.109 393.94,234.432C394.072,246.578 394.096,260.793 394.125,272.72C394.161,287.159 394.127,298.245 394.127,298.245C394.127,298.667 394.423,299.009 394.788,299.009L485.949,299.667C486.629,299.667 487.181,299.03 487.181,298.245L486.941,207.084ZM484.953,208.267L484.72,296.831C484.72,296.831 395.448,297.476 395.448,297.476C395.441,294.73 395.421,284.923 395.451,272.72C395.48,260.793 395.505,246.578 395.637,234.432C395.768,222.378 395.979,212.364 396.063,208.641C399.96,208.771 412.324,209.163 426.694,209.438C431.126,209.523 435.747,209.635 440.368,209.601C448.287,209.544 456.197,209.206 463.158,208.996C473.775,208.677 482.163,208.372 484.953,208.268L484.953,208.267Z" style="fill:rgb(206,125,0);"/>
        </g>
        <g transform="matrix(0.180455,0,0,0.156279,-5.56835,-11.0309)">
            <path d="M409.793,207.084C410.831,207.064 411.909,207.035 413.02,207.023C439.627,206.713 485.949,205.939 485.949,205.939C486.497,205.939 486.941,206.452 486.941,207.084C486.941,207.084 486.35,244.04 486.069,270.897C486.004,277.099 485.955,282.761 485.95,287.305C485.942,293.984 486.004,298.245 486.004,298.245C486.004,298.28 485.979,298.309 485.949,298.309C485.949,298.309 448.993,299.064 422.136,299.343C406.818,299.503 394.788,299.469 394.788,299.469C394.203,299.469 393.728,298.921 393.728,298.245C393.728,298.245 393.724,261.284 393.815,234.432C393.867,219.113 393.963,207.084 393.963,207.084C393.963,206.558 394.333,206.132 394.788,206.132C394.788,206.132 399.015,206.82 405.728,207.084L405.745,207.084L405.728,207.085C400.765,207.28 397.162,207.707 395.62,207.916C395.642,210.887 395.717,221.484 395.761,234.432C395.843,258.394 395.849,290.404 395.849,297.018C399.104,297.014 409.501,297.015 422.136,297.146C448.392,297.419 484.299,298.147 485.894,298.179C485.901,297.619 485.954,293.504 485.947,287.305C485.942,282.761 485.893,277.099 485.828,270.897C485.576,246.812 485.075,214.606 484.974,208.214L484.974,208.214C478.172,208.101 437.352,207.429 413.02,207.146C411.909,207.133 410.831,207.105 409.793,207.084ZM405.745,207.084C407.011,207.035 408.365,207.054 409.793,207.084C408.365,207.115 407.011,207.134 405.745,207.084Z" style="fill:rgb(206,125,0);"/>
        </g>
        <g transform="matrix(0.180455,0,0,0.156279,-46.0232,-11.0309)">
            <path d="M486.941,207.084C486.941,206.452 486.497,205.939 485.949,205.939C485.949,205.939 448.988,206.365 422.136,206.189C406.814,206.088 394.788,205.722 394.788,205.722C394.137,205.722 393.608,206.332 393.608,207.084C393.608,207.084 393.14,224.166 393.122,243.549C393.108,259.257 393.555,276.464 393.626,287.305C393.67,293.984 393.643,298.245 393.643,298.245C393.643,298.975 394.156,299.567 394.788,299.567L485.949,300.375C486.967,300.375 487.793,299.421 487.793,298.245C487.793,298.245 487.793,286.215 487.671,270.897C487.457,244.041 486.941,207.084 486.941,207.084ZM484.941,208.219C484.853,214.624 484.418,246.82 484.226,270.897C484.135,282.391 484.112,292.033 484.106,296.131C484.106,296.131 395.928,296.912 395.928,296.912C395.924,295.161 395.921,291.774 395.951,287.305C396.022,276.464 396.469,259.257 396.454,243.549C396.44,227.363 396.111,212.783 396.003,208.413C399.421,208.319 409.691,208.062 422.136,207.98C446.373,207.821 478.846,208.153 484.941,208.219L484.941,208.219Z" style="fill:rgb(206,125,0);"/>
        </g>
        <g transform="matrix(0.180455,0,0,0.156279,-27.0559,-11.0309)">
            <text x="411.423px" y="171.767px" style="font-family:'ArialMT', 'Arial', sans-serif;font-size:71.829px;fill:rgb(167,80,0);">W</text>
        </g>
        <g transform="matrix(0.235387,0,0,0.203852,-27.3615,-2.24167)">
            <text x="411.423px" y="171.767px" style="font-family:'ArialMT', 'Arial', sans-serif;font-size:55.9px;fill:rgb(167,80,0);">D</text>
        </g>
        <g transform="matrix(0.235387,0,0,0.203852,-47.6552,-2.35654)">
            <text x="411.423px" y="171.767px" style="font-family:'ArialMT', 'Arial', sans-serif;font-size:55.9px;fill:rgb(167,80,0);">S</text>
        </g>
        <g transform="matrix(0.235387,0,0,0.203852,-68.2143,-2.47141)">
            <text x="411.423px" y="171.767px" style="font-family:'ArialMT', 'Arial', sans-serif;font-size:55.9px;fill:rgb(167,80,0);">A</text>
        </g>
    </g>
</svg>
